<svg width="134" height="134" viewBox="0 0 134 134" fill="none" xmlns="http://www.w3.org/2000/svg">
<path d="M0 90.9276L43.0702 133.998L55.4158 68.1596C55.7293 66.4875 55.1975 64.7684 53.9945 63.5655L19.7545 29.3264C16.8239 26.3959 11.8086 27.9475 11.0448 32.0209L0 90.9276Z" fill="#36C5F0"/>
<path d="M43.0732 133.998L0.00292969 90.9276L65.8401 78.5831C67.5121 78.2696 69.2311 78.8014 70.4341 80.0043L104.674 114.243C107.605 117.174 106.053 122.189 101.98 122.953L43.0732 133.998Z" fill="#E01E5A"/>
<path d="M90.9288 0L134 43.0714L68.162 55.4159C66.4899 55.7294 64.7709 55.1976 63.5679 53.9946L29.3289 19.7555C26.3983 16.825 27.9498 11.8096 32.0233 11.0458L90.9288 0Z" fill="#2EB67D"/>
<path d="M78.5854 65.8395C78.2719 67.5116 78.8037 69.2306 80.0067 70.4336L114.246 104.672C117.176 107.603 122.192 106.051 122.955 101.978L134 43.0715L90.9299 0.00128174L78.5854 65.8395Z" fill="#ECB22E"/>
</svg>
